<?xml version="1.0" encoding="UTF-8" standalone="no"?>
<!-- Created with Inkscape (http://www.inkscape.org/) -->

<svg
   style="enable-background:new"
   height="512"
   viewBox="0 0 512.40002 512"
   width="512.4"
   version="1.1"
   id="svg33"
   sodipodi:docname="logo.svg"
   inkscape:version="1.1.2 (0a00cf5339, 2022-02-04)"
   xmlns:inkscape="http://www.inkscape.org/namespaces/inkscape"
   xmlns:sodipodi="http://sodipodi.sourceforge.net/DTD/sodipodi-0.dtd"
   xmlns:xlink="http://www.w3.org/1999/xlink"
   xmlns="http://www.w3.org/2000/svg"
   xmlns:svg="http://www.w3.org/2000/svg"
   xmlns:rdf="http://www.w3.org/1999/02/22-rdf-syntax-ns#"
   xmlns:cc="http://creativecommons.org/ns#"
   xmlns:dc="http://purl.org/dc/elements/1.1/">
  <sodipodi:namedview
     id="namedview35"
     pagecolor="#ffffff"
     bordercolor="#666666"
     borderopacity="1.0"
     inkscape:pageshadow="2"
     inkscape:pageopacity="0.0"
     inkscape:pagecheckerboard="0"
     showgrid="false"
     inkscape:zoom="1.4042969"
     inkscape:cx="160.57858"
     inkscape:cy="255.64395"
     inkscape:window-width="1920"
     inkscape:window-height="1043"
     inkscape:window-x="0"
     inkscape:window-y="0"
     inkscape:window-maximized="1"
     inkscape:current-layer="layer5" />
  <defs
     id="defs3">
    <linearGradient
       id="linearGradient3045">
      <stop
         style="stop-color:#847784;stop-opacity:0.99607843"
         offset="0"
         id="stop3047" />
      <stop
         style="stop-color:#695f69;stop-opacity:1"
         offset="1"
         id="stop3049" />
    </linearGradient>
    <linearGradient
       id="linearGradient4213">
      <stop
         id="stop4215"
         offset="0"
         style="stop-color:#b1d7f3;stop-opacity:1" />
      <stop
         id="stop4217"
         offset="1"
         style="stop-color:#8fafda;stop-opacity:1" />
    </linearGradient>
    <linearGradient
       id="linearGradient5460"
       inkscape:swatch="gradient">
      <stop
         style="stop-color:#e6e6e6;stop-opacity:1"
         offset="0"
         id="stop5462" />
      <stop
         style="stop-color:#ffffff;stop-opacity:1"
         offset="1"
         id="stop5464" />
    </linearGradient>
    <linearGradient
       id="linearGradient5476"
       inkscape:swatch="solid">
      <stop
         style="stop-color:#772953;stop-opacity:1;"
         offset="0"
         id="stop5478" />
    </linearGradient>
    <filter
       color-interpolation-filters="sRGB"
       id="filter4154">
      <feComposite
         id="feComposite4156"
         in2="SourceGraphic"
         k3="0"
         k2="1"
         k1="0"
         result="composite1"
         k4="0"
         operator="arithmetic" />
      <feColorMatrix
         id="feColorMatrix4158"
         type="saturate"
         values="0"
         result="colormatrix1"
         in="composite1" />
      <feFlood
         id="feFlood4160"
         result="flood1"
         flood-color="rgb(72,59,72)" />
      <feBlend
         id="feBlend4162"
         result="blend1"
         mode="multiply"
         in2="colormatrix1"
         in="flood1" />
      <feBlend
         id="feBlend4164"
         mode="screen"
         in2="blend1"
         result="blend2" />
      <feColorMatrix
         id="feColorMatrix4166"
         type="saturate"
         values="1"
         result="colormatrix2"
         in="blend2" />
      <feComposite
         id="feComposite4168"
         operator="in"
         result="composite2"
         in2="SourceGraphic"
         in="colormatrix2" />
    </filter>
    <clipPath
       clipPathUnits="userSpaceOnUse"
       id="clipPath3062">
      <rect
         style="color:#000000;fill:url(#linearGradient3066);fill-opacity:1;fill-rule:nonzero;stroke:none;stroke-width:40;marker:none;visibility:visible;display:inline;overflow:visible;enable-background:new"
         id="rect3064"
         width="475.66452"
         height="445.93549"
         x="34.167744"
         y="-194.96773" />
    </clipPath>
    <linearGradient
       inkscape:collect="always"
       xlink:href="#linearGradient3045"
       id="linearGradient3066"
       gradientUnits="userSpaceOnUse"
       gradientTransform="matrix(1.8580645,0,0,1.8736786,4.4387126,-288.65166)"
       x1="256"
       y1="50"
       x2="256"
       y2="288" />
  </defs>
  <metadata
     id="metadata4">
    <rdf:RDF>
      <cc:Work
         rdf:about="">
        <dc:format>image/svg+xml</dc:format>
        <dc:type
           rdf:resource="http://purl.org/dc/dcmitype/StillImage" />
        <dc:creator>
          <cc:Agent>
            <dc:title />
          </cc:Agent>
        </dc:creator>
        <dc:source />
        <cc:license
           rdf:resource="" />
        <dc:subject>
          <rdf:Bag />
        </dc:subject>
        <dc:date />
        <dc:rights>
          <cc:Agent>
            <dc:title />
          </cc:Agent>
        </dc:rights>
        <dc:publisher>
          <cc:Agent>
            <dc:title />
          </cc:Agent>
        </dc:publisher>
        <dc:identifier />
        <dc:relation />
        <dc:language />
        <dc:coverage />
        <dc:description />
        <dc:contributor>
          <cc:Agent>
            <dc:title />
          </cc:Agent>
        </dc:contributor>
      </cc:Work>
      <cc:Work
         rdf:about="">
        <dc:format>image/svg+xml</dc:format>
        <dc:type
           rdf:resource="http://purl.org/dc/dcmitype/StillImage" />
      </cc:Work>
    </rdf:RDF>
  </metadata>
  <g
     inkscape:groupmode="layer"
     id="layer5"
     inkscape:label="background"
     style="display:inline">
    <rect
       style="fill:#8adc8d;fill-opacity:1"
       id="rect2215"
       width="512"
       height="512"
       x="0"
       y="0" />
    <path
       id="path12492"
       style="fill:#8adc01;fill-opacity:0.292663"
       inkscape:transform-center-x="45.122383"
       inkscape:transform-center-y="-20.030334"
       d="M 80.626106,512 512,118.17662 V 512 Z"
       sodipodi:nodetypes="cccc" />
  </g>
  <g
    style="fill:#0a366a;"
    transform="scale(1.5, 1.5), translate(18, 18)">
	<path d="M153.448,45.446c-7.796-12.435-21.438-19.991-36.116-20.003C102.654,25.43,89,32.962,81.18,45.384L63.656,73.227
		c-1.247,1.982-1.655,4.379-1.136,6.662c0.521,2.284,1.927,4.267,3.909,5.513l36.999,23.255c1.984,1.247,4.383,1.654,6.667,1.131
		c2.284-0.523,4.267-1.933,5.511-3.919L153.448,45.446z"/>
	<path d="M160.434,33.866l-0.022-0.012l38.33,61.133l-4.369,2.781c-1.07,0.681-1.667,1.906-1.545,3.169s0.943,2.351,2.124,2.814
		l56.054,21.997c1.003,0.394,2.134,0.284,3.043-0.295c0.908-0.579,1.486-1.557,1.554-2.632l3.794-60.097
		c0.08-1.267-0.558-2.47-1.65-3.116c-1.093-0.645-2.455-0.623-3.525,0.059l-3.705,2.359L228.672,27.19
		c-4.827-7.7-13.277-12.375-22.365-12.375h-74.472C143.512,16.86,153.939,23.698,160.434,33.866z"/>
	<path d="M267.258,214.027c14.677,0.018,28.333-7.509,36.156-19.929c7.821-12.419,8.712-27.986,2.359-41.217l-14.248-29.657
		c-1.014-2.111-2.825-3.732-5.035-4.507c-2.21-0.775-4.638-0.64-6.748,0.376l-39.379,18.946c-2.111,1.016-3.732,2.83-4.506,5.042
		c-0.773,2.212-0.634,4.641,0.385,6.751L267.258,214.027z"/>
	<path d="M273.342,226.105l0.022-0.014l-72.156-0.085l-0.029-5.178c-0.007-1.269-0.726-2.426-1.86-2.995
		c-1.134-0.568-2.492-0.452-3.513,0.301l-48.454,35.748c-0.867,0.64-1.376,1.655-1.37,2.733c0.006,1.077,0.526,2.087,1.401,2.716
		l48.856,35.197c1.029,0.742,2.388,0.843,3.516,0.261c1.128-0.582,1.834-1.747,1.827-3.016l-0.025-4.393l41.12,0.048
		c9.089,0.011,17.543-4.654,22.38-12.349l39.636-63.048C296.746,220.83,285.407,226.019,273.342,226.105z"/>
	<path d="M60.121,266.543c7.759,12.458,21.378,20.055,36.056,20.111l32.9,0.128c2.342,0.009,4.592-0.913,6.254-2.563
		c1.662-1.65,2.6-3.893,2.607-6.235l0.141-43.699c0.008-2.343-0.917-4.594-2.57-6.255c-1.653-1.661-3.9-2.597-6.242-2.6
		l-71.294-0.116C51.549,238.512,52.361,254.084,60.121,266.543z"/>
	<path d="M80.695,162.893c1.146,0.547,2.5,0.406,3.507-0.367c1.007-0.772,1.495-2.045,1.263-3.292l-11.014-59.198
		c-0.197-1.059-0.889-1.96-1.86-2.425c-0.972-0.465-2.107-0.437-3.056,0.075l-52.992,28.595c-1.117,0.603-1.801,1.781-1.769,3.049
		c0.031,1.269,0.772,2.412,1.916,2.96l3.964,1.896L2.662,171.159c-3.978,8.172-3.471,17.816,1.341,25.526l39.425,63.179
		c-4.447-10.989-4.167-23.455,1.021-34.348l0.005,0.025l31.57-64.883L80.695,162.893z"/>
  </g>
</svg>
